<?xml version="1.0" encoding="UTF-8"?> <svg xmlns="http://www.w3.org/2000/svg" id="Layer_1" data-name="Layer 1" width="415.373" height="81.523" viewBox="0 0 311.531 61.142"><defs><style> .cls-1{fill:#27787f;}.cls-2{fill:#38b6cc;} </style></defs><path class="cls-1" d="M6.853 30.44a.892.892 0 0 1 1.01-1.01h9.875a.905.905 0 0 1 1.01 1.01v.61a.918.918 0 0 1-1.01 1.01H9.85v7.093h6.543a.904.904 0 0 1 1.01 1.01v.611a.892.892 0 0 1-1.01 1.01H9.85v8.224a.892.892 0 0 1-1.008 1.01h-.979a.892.892 0 0 1-1.01-1.01z" transform="translate(-6.235 -14.43)"></path><path class="cls-1" d="M38.132 29.064A10.77 10.77 0 0 1 49.2 40.07a11.086 11.086 0 1 1-22.169 0 10.796 10.796 0 0 1 11.1-11.007zm0 19.538c4.587 0 7.95-3.7 7.95-8.531a7.97 7.97 0 1 0-15.93 0c0 4.831 3.393 8.53 7.98 8.53z" transform="translate(-6.235 -14.43)"></path><path class="cls-1" d="M69.165 29.064a10.77 10.77 0 0 1 11.07 11.007 11.086 11.086 0 1 1-22.169 0 10.796 10.796 0 0 1 11.1-11.007zm0 19.538c4.587 0 7.95-3.7 7.95-8.531a7.97 7.97 0 1 0-15.93 0c0 4.831 3.394 8.53 7.98 8.53z" transform="translate(-6.235 -14.43)"></path><path class="cls-1" d="M90.475 30.44a.892.892 0 0 1 1.01-1.01h6.146c6.574 0 10.946 3.944 10.946 10.763 0 6.85-4.372 10.824-10.946 10.824h-6.146a.892.892 0 0 1-1.01-1.009zm6.942 17.948c4.86 0 8.041-2.874 8.041-8.195 0-5.29-3.21-8.133-8.041-8.133h-3.945v16.328z" transform="translate(-6.235 -14.43)"></path><path class="cls-1" d="M128.512 29.064a11.838 11.838 0 0 1 7.155 2.231.953.953 0 0 1 .183 1.407l-.398.612a.898.898 0 0 1-1.406.244 9.723 9.723 0 0 0-5.412-1.712c-5.015 0-7.98 3.67-7.98 8.225 0 4.587 3.027 8.53 8.01 8.53a9.672 9.672 0 0 0 5.871-2.11.892.892 0 0 1 1.407.123l.459.612a.939.939 0 0 1-.154 1.406 11.95 11.95 0 0 1-7.674 2.752c-6.666 0-11.038-4.953-11.038-11.283a10.667 10.667 0 0 1 10.977-11.037z" transform="translate(-6.235 -14.43)"></path><path class="cls-1" d="M146.611 30.44a.892.892 0 0 1 1.01-1.01h.978a.892.892 0 0 1 1.009 1.01v8.5h11.221v-8.5a.905.905 0 0 1 1.01-1.01h1.009a.883.883 0 0 1 .978 1.01v19.568a.883.883 0 0 1-.978 1.01h-1.009a.905.905 0 0 1-1.01-1.01v-8.47h-11.221v8.47a.892.892 0 0 1-1.009 1.01h-.978a.892.892 0 0 1-1.01-1.01z" transform="translate(-6.235 -14.43)"></path><path class="cls-1" d="M180.337 30.256a1.062 1.062 0 0 1 1.131-.826h1.468a1.081 1.081 0 0 1 1.13.826l7.095 19.6a.788.788 0 0 1-.826 1.162h-1.039a1.09 1.09 0 0 1-1.132-.826l-1.926-5.381h-8.133l-1.896 5.381a1.057 1.057 0 0 1-1.101.826h-1.04c-.765 0-1.07-.459-.826-1.162zm5.106 12.047l-2.385-6.849c-.367-1.1-.826-3.058-.826-3.058h-.061s-.489 1.957-.856 3.058l-2.416 6.85z" transform="translate(-6.235 -14.43)"></path><path class="cls-1" d="M200.546 30.44a.892.892 0 0 1 1.01-1.01h.978a.892.892 0 0 1 1.009 1.01v19.568a.892.892 0 0 1-1.009 1.01h-.978a.892.892 0 0 1-1.01-1.01z" transform="translate(-6.235 -14.43)"></path><path class="cls-1" d="M215.162 30.44a.892.892 0 0 1 1.01-1.01h1.16a1.262 1.262 0 0 1 1.224.673l9.203 13.362c.765 1.162 1.774 3.119 1.774 3.119h.06s-.182-1.927-.182-3.12V30.44a.904.904 0 0 1 1.009-1.009h.978a.892.892 0 0 1 1.01 1.01v19.568a.892.892 0 0 1-1.01 1.01h-1.162a1.218 1.218 0 0 1-1.192-.674l-9.234-13.33c-.764-1.193-1.774-3.15-1.774-3.15h-.06s.183 1.926.183 3.15v12.994a.892.892 0 0 1-1.009 1.01h-.978a.892.892 0 0 1-1.01-1.01z" transform="translate(-6.235 -14.43)"></path><path class="cls-1" d="M280.718 29.59h-6.151a.892.892 0 0 0-1.01 1.01v19.585a.892.892 0 0 0 1.01 1.01h6.151c6.58 0 10.955-3.978 10.955-10.833 0-6.824-4.375-10.772-10.955-10.772zm-.214 18.973h-3.948v-16.34h3.948c4.835 0 8.048 2.845 8.048 8.14 0 5.324-3.182 8.2-8.048 8.2z" transform="translate(-6.235 -14.43)"></path><path class="cls-1" d="M260.312 15.161h.98a1.01 1.01 0 0 1 1.01 1.01v19.585a1.01 1.01 0 0 1-1.01 1.01h-.98a1.01 1.01 0 0 1-1.01-1.01V16.172a1.01 1.01 0 0 1 1.01-1.01z"></path><path class="cls-2" d="M255.904 39.558c.021-.516.053-1.029.109-1.535h-4.524c-.047.507-.076 1.02-.092 1.535z" transform="translate(-6.235 -14.43)"></path><path class="cls-2" d="M255.905 41.237h-4.507c.016.508.045 1.013.09 1.514h4.525c-.055-.5-.087-1.005-.108-1.514z" transform="translate(-6.235 -14.43)"></path><path class="cls-2" d="M298.763 39.558h4.507a26.122 26.122 0 0 0-.092-1.535h-4.524c.056.506.088 1.02.11 1.535z" transform="translate(-6.235 -14.43)"></path><path class="cls-2" d="M277.334 61.84a21.456 21.456 0 0 1-21.079-17.472h-4.573a25.96 25.96 0 0 0 51.303 0h-4.573a21.456 21.456 0 0 1-21.078 17.472z" transform="translate(-6.235 -14.43)"></path><path class="cls-2" d="M277.334 18.933a21.456 21.456 0 0 1 21.078 17.472h4.573a25.96 25.96 0 0 0-51.303 0h4.573a21.456 21.456 0 0 1 21.079-17.472z" transform="translate(-6.235 -14.43)"></path><path class="cls-2" d="M298.763 41.237c-.021.508-.054 1.014-.108 1.514h4.523c.046-.5.075-1.006.091-1.514z" transform="translate(-6.235 -14.43)"></path><path class="cls-1" d="M6.363 70.967l.247-.349a.426.426 0 0 1 .654-.087 3.78 3.78 0 0 0 2.236.828c1.09 0 1.801-.581 1.801-1.467 0-2.266-4.938-1.758-4.938-4.953 0-1.728 1.452-2.847 3.326-2.847a4.451 4.451 0 0 1 2.57.785.459.459 0 0 1 .146.654l-.203.363c-.174.305-.407.276-.654.13a3.568 3.568 0 0 0-1.888-.595c-1.06 0-1.845.552-1.845 1.438 0 2.208 4.938 1.612 4.938 4.91A2.952 2.952 0 0 1 9.5 72.694a5.09 5.09 0 0 1-3.08-1.06.438.438 0 0 1-.057-.668z" transform="translate(-6.235 -14.43)"></path><path class="cls-1" d="M19.84 64.998c2.033 0 3.166 1.452 3.166 3.5a.49.49 0 0 1-.494.493h-4.91a2.48 2.48 0 0 0 2.542 2.484 3.013 3.013 0 0 0 1.758-.58.428.428 0 0 1 .654.16l.13.217a.43.43 0 0 1-.145.639 4.363 4.363 0 0 1-2.484.784 3.742 3.742 0 0 1-3.892-3.848 3.601 3.601 0 0 1 3.675-3.85zm1.758 3.064a1.79 1.79 0 0 0-1.787-1.96 2.16 2.16 0 0 0-2.15 1.96z" transform="translate(-6.235 -14.43)"></path><path class="cls-1" d="M29.991 64.998c2.033 0 3.166 1.452 3.166 3.5a.49.49 0 0 1-.494.493h-4.91a2.48 2.48 0 0 0 2.543 2.484 3.013 3.013 0 0 0 1.757-.58.428.428 0 0 1 .654.16l.13.217a.43.43 0 0 1-.145.639 4.362 4.362 0 0 1-2.483.784 3.742 3.742 0 0 1-3.892-3.848 3.601 3.601 0 0 1 3.674-3.85zm1.758 3.064a1.79 1.79 0 0 0-1.787-1.96 2.16 2.16 0 0 0-2.15 1.96z" transform="translate(-6.235 -14.43)"></path><path class="cls-1" d="M36.917 63.226v-.48a.424.424 0 0 1 .48-.479h.493a.43.43 0 0 1 .479.48v.479a.436.436 0 0 1-.479.479h-.494a.43.43 0 0 1-.48-.48zm.015 2.425a.43.43 0 0 1 .479-.48h.45a.423.423 0 0 1 .479.48v6.39a.423.423 0 0 1-.479.48h-.45a.43.43 0 0 1-.48-.48z" transform="translate(-6.235 -14.43)"></path><path class="cls-1" d="M42.61 65.65a.43.43 0 0 1 .479-.478h.407a.423.423 0 0 1 .479.479v.654a2.314 2.314 0 0 1-.043.42h.029a3.048 3.048 0 0 1 2.789-1.727c1.728 0 2.513.944 2.513 2.817v4.227a.424.424 0 0 1-.48.479h-.45a.43.43 0 0 1-.48-.48v-3.906c0-1.032-.203-1.845-1.38-1.845a2.537 2.537 0 0 0-2.454 2.716v3.036a.423.423 0 0 1-.48.479h-.45a.43.43 0 0 1-.479-.48z" transform="translate(-6.235 -14.43)"></path><path class="cls-1" d="M54.562 74.031a4.23 4.23 0 0 0 1.597.32c1.25 0 2.31-.567 2.31-2.063v-.638a2.942 2.942 0 0 1 .043-.465h-.029a2.313 2.313 0 0 1-2.178 1.25c-2.062 0-3.311-1.627-3.311-3.777 0-2.092 1.161-3.66 3.282-3.66a2.315 2.315 0 0 1 2.295 1.234h.029a.806.806 0 0 1-.03-.232v-.421c0-.247.16-.407.48-.407h.349a.423.423 0 0 1 .478.48v6.564c0 2.425-1.859 3.355-3.645 3.355a5.536 5.536 0 0 1-2.135-.407.42.42 0 0 1-.247-.638l.102-.247a.41.41 0 0 1 .61-.248zm3.936-5.33c0-1.932-.944-2.483-2.033-2.483-1.322 0-2.033.93-2.033 2.381 0 1.583.798 2.615 2.12 2.615 1.017 0 1.946-.61 1.946-2.513z" transform="translate(-6.235 -14.43)"></path><path class="cls-1" d="M70.317 62.746a.424.424 0 0 1 .48-.479h4.692a.43.43 0 0 1 .478.48v.29a.436.436 0 0 1-.478.48H71.74v3.368h3.108a.43.43 0 0 1 .48.48v.29a.423.423 0 0 1-.48.48h-3.108v3.907a.424.424 0 0 1-.48.479h-.464a.424.424 0 0 1-.48-.48z" transform="translate(-6.235 -14.43)"></path><path class="cls-1" d="M82.894 64.998a3.85 3.85 0 1 1-3.95 3.834 3.834 3.834 0 0 1 3.95-3.834zm0 6.477a2.63 2.63 0 1 0-2.527-2.643 2.54 2.54 0 0 0 2.527 2.643z" transform="translate(-6.235 -14.43)"></path><path class="cls-1" d="M94.12 64.998a3.85 3.85 0 1 1-3.95 3.834 3.834 3.834 0 0 1 3.95-3.834zm0 6.477a2.63 2.63 0 1 0-2.527-2.643 2.54 2.54 0 0 0 2.527 2.643z" transform="translate(-6.235 -14.43)"></path><path class="cls-1" d="M104.75 64.998a2.49 2.49 0 0 1 2.28 1.263h.03a2.787 2.787 0 0 1-.044-.494v-3.02a.423.423 0 0 1 .479-.48h.45a.423.423 0 0 1 .48.48v9.295a.423.423 0 0 1-.48.479h-.377c-.32 0-.48-.16-.48-.45v-.421a2.277 2.277 0 0 1 .03-.363h-.03a2.633 2.633 0 0 1-2.424 1.409c-1.99 0-3.24-1.569-3.24-3.849 0-2.34 1.38-3.85 3.326-3.85zm.19 6.477c1.088 0 2.12-.77 2.12-2.643 0-1.308-.683-2.6-2.092-2.6-1.147 0-2.106.944-2.106 2.615 0 1.597.857 2.628 2.077 2.628z" transform="translate(-6.235 -14.43)"></path><path class="cls-1" d="M123.44 62.093a5.62 5.62 0 0 1 3.399 1.06.452.452 0 0 1 .087.668l-.189.29a.426.426 0 0 1-.668.116 4.62 4.62 0 0 0-2.57-.813 3.674 3.674 0 0 0-3.791 3.907 3.805 3.805 0 0 0 3.805 4.052 4.59 4.59 0 0 0 2.788-1.002.424.424 0 0 1 .67.058l.217.29a.446.446 0 0 1-.073.668 5.679 5.679 0 0 1-3.645 1.308 5.302 5.302 0 0 1-.03-10.603z" transform="translate(-6.235 -14.43)"></path><path class="cls-1" d="M131.02 62.746a.423.423 0 0 1 .479-.479h.45a.43.43 0 0 1 .48.48v7.595c0 .828.363.944.667.973a.388.388 0 0 1 .378.422v.348a.432.432 0 0 1-.493.494c-.785 0-1.961-.218-1.961-2.062z" transform="translate(-6.235 -14.43)"></path><path class="cls-1" d="M140.27 64.998c2.034 0 3.167 1.452 3.167 3.5a.49.49 0 0 1-.494.493h-4.91a2.48 2.48 0 0 0 2.542 2.484 3.013 3.013 0 0 0 1.758-.58.427.427 0 0 1 .654.16l.13.217a.43.43 0 0 1-.146.639 4.363 4.363 0 0 1-2.483.784 3.742 3.742 0 0 1-3.892-3.848 3.601 3.601 0 0 1 3.675-3.85zm1.758 3.064a1.79 1.79 0 0 0-1.786-1.96 2.16 2.16 0 0 0-2.15 1.96z" transform="translate(-6.235 -14.43)"></path><path class="cls-1" d="M151.003 67.99h.377v-.19a1.43 1.43 0 0 0-1.597-1.612 3.416 3.416 0 0 0-1.656.465.45.45 0 0 1-.654-.174l-.116-.204a.434.434 0 0 1 .16-.653 4.83 4.83 0 0 1 2.381-.624 2.614 2.614 0 0 1 2.891 2.875v4.169a.43.43 0 0 1-.48.479h-.363a.43.43 0 0 1-.479-.48v-.435a2.08 2.08 0 0 1 .043-.45h-.029a2.727 2.727 0 0 1-2.396 1.54 2.266 2.266 0 0 1-2.47-2.179c.001-2.28 2.862-2.528 4.388-2.528zm-1.598 3.587a2.218 2.218 0 0 0 1.99-2.338v-.32h-.378c-1.031 0-2.978.087-2.978 1.482a1.235 1.235 0 0 0 1.366 1.176z" transform="translate(-6.235 -14.43)"></path><path class="cls-1" d="M156.957 65.65a.43.43 0 0 1 .478-.478h.407a.423.423 0 0 1 .479.479v.842a3.6 3.6 0 0 1-.043.552h.03a2.582 2.582 0 0 1 2.25-1.932c.334 0 .465.16.465.48V66c0 .32-.19.48-.523.48-1.438 0-2.135 1.553-2.135 3.006v2.556a.423.423 0 0 1-.479.48h-.45a.43.43 0 0 1-.48-.48z" transform="translate(-6.235 -14.43)"></path><path class="cls-1" d="M164.363 62.746a.423.423 0 0 1 .479-.479h.45a.43.43 0 0 1 .48.48v7.595c0 .828.362.944.667.973a.388.388 0 0 1 .378.422v.348a.432.432 0 0 1-.494.494c-.784 0-1.96-.218-1.96-2.062z" transform="translate(-6.235 -14.43)"></path><path class="cls-1" d="M170.185 74.22a1.46 1.46 0 0 0 .581.16 1.512 1.512 0 0 0 1.264-1.104l.363-.842-2.847-6.71c-.145-.334.015-.552.363-.552h.567a.506.506 0 0 1 .537.378l1.729 4.43c.13.363.261.886.261.886h.03s.116-.494.246-.872l1.67-4.43a.495.495 0 0 1 .538-.392h.523c.348 0 .508.218.377.552l-3.238 8.09a2.523 2.523 0 0 1-2.383 1.757 2.615 2.615 0 0 1-1.016-.233.43.43 0 0 1-.218-.624l.116-.247a.417.417 0 0 1 .537-.247z" transform="translate(-6.235 -14.43)"></path><path class="cls-1" d="M313.013 26.605a4.834 4.834 0 1 1-4.699 4.833 4.766 4.766 0 0 1 4.7-4.833zm-.002 9.1a4.274 4.274 0 1 0-4.053-4.267 4.128 4.128 0 0 0 4.053 4.267zm-1.613-6.346a.386.386 0 0 1 .436-.437h1.498a1.45 1.45 0 0 1 1.562 1.523 1.321 1.321 0 0 1-.914 1.323v.027a1.323 1.323 0 0 1 .172.278l.688 1.337c.158.304.066.503-.238.503h-.16a.508.508 0 0 1-.516-.318l-.768-1.615h-.82v1.51a.369.369 0 0 1-.41.424h-.12a.369.369 0 0 1-.41-.424zm1.735 1.933a.762.762 0 0 0 .807-.847.734.734 0 0 0-.794-.808h-.807v1.655z" transform="translate(-6.235 -14.43)"></path></svg> 